<svg xmlns="http://www.w3.org/2000/svg" viewBox="0 0 100 100" preserveAspectRatio="xMidYMid" width="135" height="135" style="shape-rendering: auto; display: block; background: rgb(255, 255, 255);" xmlns:xlink="http://www.w3.org/1999/xlink"><g><g transform="rotate(0 50 50)">
  <rect fill="#fe718d" height="12" width="1" ry="6" rx="0.5" y="21" x="49.5">
    <animate repeatCount="indefinite" begin="-1.132897603485839s" dur="1.1764705882352942s" keyTimes="0;1" values="1;0" attributeName="opacity"></animate>
  </rect>
</g><g transform="rotate(13.333333333333334 50 50)">
  <rect fill="#f47e60" height="12" width="1" ry="6" rx="0.5" y="21" x="49.5">
    <animate repeatCount="indefinite" begin="-1.0893246187363834s" dur="1.1764705882352942s" keyTimes="0;1" values="1;0" attributeName="opacity"></animate>
  </rect>
</g><g transform="rotate(26.666666666666668 50 50)">
  <rect fill="#f8b26a" height="12" width="1" ry="6" rx="0.5" y="21" x="49.5">
    <animate repeatCount="indefinite" begin="-1.0457516339869282s" dur="1.1764705882352942s" keyTimes="0;1" values="1;0" attributeName="opacity"></animate>
  </rect>
</g><g transform="rotate(40 50 50)">
  <rect fill="#abbd81" height="12" width="1" ry="6" rx="0.5" y="21" x="49.5">
    <animate repeatCount="indefinite" begin="-1.002178649237473s" dur="1.1764705882352942s" keyTimes="0;1" values="1;0" attributeName="opacity"></animate>
  </rect>
</g><g transform="rotate(53.333333333333336 50 50)">
  <rect fill="#849b87" height="12" width="1" ry="6" rx="0.5" y="21" x="49.5">
    <animate repeatCount="indefinite" begin="-0.9586056644880174s" dur="1.1764705882352942s" keyTimes="0;1" values="1;0" attributeName="opacity"></animate>
  </rect>
</g><g transform="rotate(66.66666666666667 50 50)">
  <rect fill="#6492ac" height="12" width="1" ry="6" rx="0.5" y="21" x="49.5">
    <animate repeatCount="indefinite" begin="-0.9150326797385622s" dur="1.1764705882352942s" keyTimes="0;1" values="1;0" attributeName="opacity"></animate>
  </rect>
</g><g transform="rotate(80 50 50)">
  <rect fill="#637cb5" height="12" width="1" ry="6" rx="0.5" y="21" x="49.5">
    <animate repeatCount="indefinite" begin="-0.8714596949891068s" dur="1.1764705882352942s" keyTimes="0;1" values="1;0" attributeName="opacity"></animate>
  </rect>
</g><g transform="rotate(93.33333333333333 50 50)">
  <rect fill="#6a63b6" height="12" width="1" ry="6" rx="0.5" y="21" x="49.5">
    <animate repeatCount="indefinite" begin="-0.8278867102396514s" dur="1.1764705882352942s" keyTimes="0;1" values="1;0" attributeName="opacity"></animate>
  </rect>
</g><g transform="rotate(106.66666666666667 50 50)">
  <rect fill="#fe718d" height="12" width="1" ry="6" rx="0.5" y="21" x="49.5">
    <animate repeatCount="indefinite" begin="-0.7843137254901961s" dur="1.1764705882352942s" keyTimes="0;1" values="1;0" attributeName="opacity"></animate>
  </rect>
</g><g transform="rotate(120 50 50)">
  <rect fill="#f47e60" height="12" width="1" ry="6" rx="0.5" y="21" x="49.5">
    <animate repeatCount="indefinite" begin="-0.7407407407407408s" dur="1.1764705882352942s" keyTimes="0;1" values="1;0" attributeName="opacity"></animate>
  </rect>
</g><g transform="rotate(133.33333333333334 50 50)">
  <rect fill="#f8b26a" height="12" width="1" ry="6" rx="0.5" y="21" x="49.5">
    <animate repeatCount="indefinite" begin="-0.6971677559912854s" dur="1.1764705882352942s" keyTimes="0;1" values="1;0" attributeName="opacity"></animate>
  </rect>
</g><g transform="rotate(146.66666666666666 50 50)">
  <rect fill="#abbd81" height="12" width="1" ry="6" rx="0.5" y="21" x="49.5">
    <animate repeatCount="indefinite" begin="-0.6535947712418301s" dur="1.1764705882352942s" keyTimes="0;1" values="1;0" attributeName="opacity"></animate>
  </rect>
</g><g transform="rotate(160 50 50)">
  <rect fill="#849b87" height="12" width="1" ry="6" rx="0.5" y="21" x="49.5">
    <animate repeatCount="indefinite" begin="-0.6100217864923747s" dur="1.1764705882352942s" keyTimes="0;1" values="1;0" attributeName="opacity"></animate>
  </rect>
</g><g transform="rotate(173.33333333333334 50 50)">
  <rect fill="#6492ac" height="12" width="1" ry="6" rx="0.5" y="21" x="49.5">
    <animate repeatCount="indefinite" begin="-0.5664488017429194s" dur="1.1764705882352942s" keyTimes="0;1" values="1;0" attributeName="opacity"></animate>
  </rect>
</g><g transform="rotate(186.66666666666666 50 50)">
  <rect fill="#637cb5" height="12" width="1" ry="6" rx="0.5" y="21" x="49.5">
    <animate repeatCount="indefinite" begin="-0.5228758169934641s" dur="1.1764705882352942s" keyTimes="0;1" values="1;0" attributeName="opacity"></animate>
  </rect>
</g><g transform="rotate(200 50 50)">
  <rect fill="#6a63b6" height="12" width="1" ry="6" rx="0.5" y="21" x="49.5">
    <animate repeatCount="indefinite" begin="-0.4793028322440087s" dur="1.1764705882352942s" keyTimes="0;1" values="1;0" attributeName="opacity"></animate>
  </rect>
</g><g transform="rotate(213.33333333333334 50 50)">
  <rect fill="#fe718d" height="12" width="1" ry="6" rx="0.5" y="21" x="49.5">
    <animate repeatCount="indefinite" begin="-0.4357298474945534s" dur="1.1764705882352942s" keyTimes="0;1" values="1;0" attributeName="opacity"></animate>
  </rect>
</g><g transform="rotate(226.66666666666666 50 50)">
  <rect fill="#f47e60" height="12" width="1" ry="6" rx="0.5" y="21" x="49.5">
    <animate repeatCount="indefinite" begin="-0.39215686274509803s" dur="1.1764705882352942s" keyTimes="0;1" values="1;0" attributeName="opacity"></animate>
  </rect>
</g><g transform="rotate(240 50 50)">
  <rect fill="#f8b26a" height="12" width="1" ry="6" rx="0.5" y="21" x="49.5">
    <animate repeatCount="indefinite" begin="-0.3485838779956427s" dur="1.1764705882352942s" keyTimes="0;1" values="1;0" attributeName="opacity"></animate>
  </rect>
</g><g transform="rotate(253.33333333333334 50 50)">
  <rect fill="#abbd81" height="12" width="1" ry="6" rx="0.5" y="21" x="49.5">
    <animate repeatCount="indefinite" begin="-0.30501089324618735s" dur="1.1764705882352942s" keyTimes="0;1" values="1;0" attributeName="opacity"></animate>
  </rect>
</g><g transform="rotate(266.6666666666667 50 50)">
  <rect fill="#849b87" height="12" width="1" ry="6" rx="0.5" y="21" x="49.5">
    <animate repeatCount="indefinite" begin="-0.26143790849673204s" dur="1.1764705882352942s" keyTimes="0;1" values="1;0" attributeName="opacity"></animate>
  </rect>
</g><g transform="rotate(280 50 50)">
  <rect fill="#6492ac" height="12" width="1" ry="6" rx="0.5" y="21" x="49.5">
    <animate repeatCount="indefinite" begin="-0.2178649237472767s" dur="1.1764705882352942s" keyTimes="0;1" values="1;0" attributeName="opacity"></animate>
  </rect>
</g><g transform="rotate(293.3333333333333 50 50)">
  <rect fill="#637cb5" height="12" width="1" ry="6" rx="0.5" y="21" x="49.5">
    <animate repeatCount="indefinite" begin="-0.17429193899782136s" dur="1.1764705882352942s" keyTimes="0;1" values="1;0" attributeName="opacity"></animate>
  </rect>
</g><g transform="rotate(306.6666666666667 50 50)">
  <rect fill="#6a63b6" height="12" width="1" ry="6" rx="0.5" y="21" x="49.5">
    <animate repeatCount="indefinite" begin="-0.13071895424836602s" dur="1.1764705882352942s" keyTimes="0;1" values="1;0" attributeName="opacity"></animate>
  </rect>
</g><g transform="rotate(320 50 50)">
  <rect fill="#fe718d" height="12" width="1" ry="6" rx="0.5" y="21" x="49.5">
    <animate repeatCount="indefinite" begin="-0.08714596949891068s" dur="1.1764705882352942s" keyTimes="0;1" values="1;0" attributeName="opacity"></animate>
  </rect>
</g><g transform="rotate(333.3333333333333 50 50)">
  <rect fill="#f47e60" height="12" width="1" ry="6" rx="0.5" y="21" x="49.5">
    <animate repeatCount="indefinite" begin="-0.04357298474945534s" dur="1.1764705882352942s" keyTimes="0;1" values="1;0" attributeName="opacity"></animate>
  </rect>
</g><g transform="rotate(346.6666666666667 50 50)">
  <rect fill="#f8b26a" height="12" width="1" ry="6" rx="0.5" y="21" x="49.5">
    <animate repeatCount="indefinite" begin="0s" dur="1.1764705882352942s" keyTimes="0;1" values="1;0" attributeName="opacity"></animate>
  </rect>
</g><g></g></g><!-- [ldio] generated by https://loading.io --></svg>